<?xml version="1.0" encoding="utf-8" standalone="no"?>
<!DOCTYPE svg PUBLIC "-//W3C//DTD SVG 1.1//EN"
  "http://www.w3.org/Graphics/SVG/1.1/DTD/svg11.dtd">
<svg xmlns:xlink="http://www.w3.org/1999/xlink" width="705.83pt" height="532.4pt" viewBox="0 0 705.83 532.4" xmlns="http://www.w3.org/2000/svg" version="1.1">
 <metadata>
  <rdf:RDF xmlns:dc="http://purl.org/dc/elements/1.1/" xmlns:cc="http://creativecommons.org/ns#" xmlns:rdf="http://www.w3.org/1999/02/22-rdf-syntax-ns#">
   <cc:Work>
    <dc:type rdf:resource="http://purl.org/dc/dcmitype/StillImage"/>
    <dc:date>2026-05-12T19:07:11.542649</dc:date>
    <dc:format>image/svg+xml</dc:format>
    <dc:creator>
     <cc:Agent>
      <dc:title>Matplotlib v3.6.3, https://matplotlib.org/</dc:title>
     </cc:Agent>
    </dc:creator>
   </cc:Work>
  </rdf:RDF>
 </metadata>
 <defs>
  <style type="text/css">*{stroke-linejoin: round; stroke-linecap: butt}</style>
 </defs>
 <g id="figure_1">
  <g id="patch_1">
   <path d="M 0 532.4 
L 705.83 532.4 
L 705.83 0 
L 0 0 
z
" style="fill: #ffffff"/>
  </g>
  <g id="axes_1">
   <g id="line2d_1">
    <path d="M 41.7715 90.08 
L 664.0585 90.08 
" clip-path="url(#p93d7fb45e9)" style="fill: none; stroke: #d8d8d8; stroke-width: 0.8; stroke-linecap: square"/>
   </g>
   <g id="line2d_2">
    <path d="M 41.7715 252.386667 
L 664.0585 252.386667 
" clip-path="url(#p93d7fb45e9)" style="fill: none; stroke: #d8d8d8; stroke-width: 0.8; stroke-linecap: square"/>
   </g>
   <g id="line2d_3">
    <path d="M 41.7715 366.346667 
L 664.0585 366.346667 
" clip-path="url(#p93d7fb45e9)" style="fill: none; stroke: #d8d8d8; stroke-width: 0.8; stroke-linecap: square"/>
   </g>
   <g id="line2d_4">
    <path d="M 41.7715 473.4 
L 664.0585 473.4 
" clip-path="url(#p93d7fb45e9)" style="fill: none; stroke: #d8d8d8; stroke-width: 0.8; stroke-linecap: square"/>
   </g>
   <g id="patch_2">
    <path d="M 55.6001 210.946667 
L 166.2289 210.946667 
Q 176.60035 210.946667 176.60035 200.586667 
L 176.60035 159.146667 
Q 176.60035 148.786667 166.2289 148.786667 
L 55.6001 148.786667 
Q 45.22865 148.786667 45.22865 159.146667 
L 45.22865 200.586667 
Q 45.22865 210.946667 55.6001 210.946667 
z
" clip-path="url(#p93d7fb45e9)" style="fill: #0f4d92; opacity: 0.95; stroke: #ffffff; stroke-width: 1.5; stroke-linejoin: miter"/>
   </g>
   <g id="patch_3">
    <path d="M 258.88052 209.22 
L 308.66348 209.22 
Q 319.03493 209.22 319.03493 198.86 
L 319.03493 160.873333 
Q 319.03493 150.513333 308.66348 150.513333 
L 258.88052 150.513333 
Q 248.50907 150.513333 248.50907 160.873333 
L 248.50907 198.86 
Q 248.50907 209.22 258.88052 209.22 
z
" clip-path="url(#p93d7fb45e9)" style="fill: #3775ba; opacity: 0.9; stroke: #ffffff; stroke-width: 1.5; stroke-linejoin: miter"/>
   </g>
   <g id="patch_4">
    <path d="M 322.49208 209.22 
L 372.27504 209.22 
Q 382.64649 209.22 382.64649 198.86 
L 382.64649 160.873333 
Q 382.64649 150.513333 372.27504 150.513333 
L 322.49208 150.513333 
Q 312.12063 150.513333 312.12063 160.873333 
L 312.12063 198.86 
Q 312.12063 209.22 322.49208 209.22 
z
" clip-path="url(#p93d7fb45e9)" style="fill: #3775ba; opacity: 0.9; stroke: #ffffff; stroke-width: 1.5; stroke-linejoin: miter"/>
   </g>
   <g id="patch_5">
    <path d="M 386.10364 209.22 
L 435.8866 209.22 
Q 446.25805 209.22 446.25805 198.86 
L 446.25805 160.873333 
Q 446.25805 150.513333 435.8866 150.513333 
L 386.10364 150.513333 
Q 375.73219 150.513333 375.73219 160.873333 
L 375.73219 198.86 
Q 375.73219 209.22 386.10364 209.22 
z
" clip-path="url(#p93d7fb45e9)" style="fill: #3775ba; opacity: 0.9; stroke: #ffffff; stroke-width: 1.5; stroke-linejoin: miter"/>
   </g>
   <g id="patch_6">
    <path d="M 449.7152 209.22 
L 499.49816 209.22 
Q 509.86961 209.22 509.86961 198.86 
L 509.86961 160.873333 
Q 509.86961 150.513333 499.49816 150.513333 
L 449.7152 150.513333 
Q 439.34375 150.513333 439.34375 160.873333 
L 439.34375 198.86 
Q 439.34375 209.22 449.7152 209.22 
z
" clip-path="url(#p93d7fb45e9)" style="fill: #3775ba; opacity: 0.9; stroke: #ffffff; stroke-width: 1.5; stroke-linejoin: miter"/>
   </g>
   <g id="patch_7">
    <path d="M 513.32676 209.22 
L 563.10972 209.22 
Q 573.48117 209.22 573.48117 198.86 
L 573.48117 160.873333 
Q 573.48117 150.513333 563.10972 150.513333 
L 513.32676 150.513333 
Q 502.95531 150.513333 502.95531 160.873333 
L 502.95531 198.86 
Q 502.95531 209.22 513.32676 209.22 
z
" clip-path="url(#p93d7fb45e9)" style="fill: #3775ba; opacity: 0.9; stroke: #ffffff; stroke-width: 1.5; stroke-linejoin: miter"/>
   </g>
   <g id="patch_8">
    <path d="M 576.93832 209.22 
L 626.72128 209.22 
Q 637.09273 209.22 637.09273 198.86 
L 637.09273 160.873333 
Q 637.09273 150.513333 626.72128 150.513333 
L 576.93832 150.513333 
Q 566.56687 150.513333 566.56687 160.873333 
L 566.56687 198.86 
Q 566.56687 209.22 576.93832 209.22 
z
" clip-path="url(#p93d7fb45e9)" style="fill: #3775ba; opacity: 0.9; stroke: #ffffff; stroke-width: 1.5; stroke-linejoin: miter"/>
   </g>
   <g id="patch_9">
    <path d="M 69.4287 345.626667 
L 221.5433 345.626667 
Q 231.91475 345.626667 231.91475 335.266667 
L 231.91475 300.733333 
Q 231.91475 290.373333 221.5433 290.373333 
L 69.4287 290.373333 
Q 59.05725 290.373333 59.05725 300.733333 
L 59.05725 335.266667 
Q 59.05725 345.626667 69.4287 345.626667 
z
" clip-path="url(#p93d7fb45e9)" style="fill: #8bcf8b; opacity: 0.95; stroke: #ffffff; stroke-width: 1.5; stroke-linejoin: miter"/>
   </g>
   <g id="patch_10">
    <path d="M 276.8577 345.626667 
L 428.9723 345.626667 
Q 439.34375 345.626667 439.34375 335.266667 
L 439.34375 300.733333 
Q 439.34375 290.373333 428.9723 290.373333 
L 276.8577 290.373333 
Q 266.48625 290.373333 266.48625 300.733333 
L 266.48625 335.266667 
Q 266.48625 345.626667 276.8577 345.626667 
z
" clip-path="url(#p93d7fb45e9)" style="fill: #8bcf8b; opacity: 0.95; stroke: #ffffff; stroke-width: 1.5; stroke-linejoin: miter"/>
   </g>
   <g id="patch_11">
    <path d="M 484.2867 345.626667 
L 636.4013 345.626667 
Q 646.77275 345.626667 646.77275 335.266667 
L 646.77275 300.733333 
Q 646.77275 290.373333 636.4013 290.373333 
L 484.2867 290.373333 
Q 473.91525 290.373333 473.91525 300.733333 
L 473.91525 335.266667 
Q 473.91525 345.626667 484.2867 345.626667 
z
" clip-path="url(#p93d7fb45e9)" style="fill: #8bcf8b; opacity: 0.95; stroke: #ffffff; stroke-width: 1.5; stroke-linejoin: miter"/>
   </g>
   <g id="patch_12">
    <path d="M 59.05725 456.133333 
L 301.05775 456.133333 
Q 311.4292 456.133333 311.4292 445.773333 
L 311.4292 411.24 
Q 311.4292 400.88 301.05775 400.88 
L 59.05725 400.88 
Q 48.6858 400.88 48.6858 411.24 
L 48.6858 445.773333 
Q 48.6858 456.133333 59.05725 456.133333 
z
" clip-path="url(#p93d7fb45e9)" style="fill: #b64342; opacity: 0.95; stroke: #ffffff; stroke-width: 1.5; stroke-linejoin: miter"/>
   </g>
   <g id="patch_13">
    <path d="M 404.77225 456.133333 
L 646.77275 456.133333 
Q 657.1442 456.133333 657.1442 445.773333 
L 657.1442 411.24 
Q 657.1442 400.88 646.77275 400.88 
L 404.77225 400.88 
Q 394.4008 400.88 394.4008 411.24 
L 394.4008 445.773333 
Q 394.4008 456.133333 404.77225 456.133333 
z
" clip-path="url(#p93d7fb45e9)" style="fill: #b64342; opacity: 0.95; stroke: #ffffff; stroke-width: 1.5; stroke-linejoin: miter"/>
   </g>
   <g id="text_1">
    <text style="fill: #0f4d92; font: 700 20px 'Arial', 'DejaVu Sans', sans-serif; text-anchor: middle" x="352.915" y="47.173958" transform="rotate(-0 352.915 47.173958)">Synthos Architecture</text>
   </g>
   <g id="text_2">
    <text style="fill: #767676; font: 9px 'Arial', 'DejaVu Sans', sans-serif; text-anchor: middle" x="352.915" y="64.936771" transform="rotate(-0 352.915 64.936771)">Autonomous Evolving Research OS  •  v4.3.0</text>
   </g>
   <g id="text_3">
    <text style="fill: #767676; font: 700 9px 'Arial', 'DejaVu Sans', sans-serif; text-anchor: middle" x="55.6001" y="130.514948" transform="rotate(-0 55.6001 130.514948)">Cognitive Pipeline</text>
   </g>
   <g id="text_4">
    <text style="fill: #ffffff; font: 700 10px 'Arial', 'DejaVu Sans', sans-serif; text-anchor: middle" x="110.9145" y="177.100708" transform="rotate(-0 110.9145 177.100708)">ROUTER</text>
   </g>
   <g id="text_5">
    <text style="fill: #ffffff; opacity: 0.85; font: 7px 'Arial', 'DejaVu Sans', sans-serif; text-anchor: middle" x="110.9145" y="196.992896" transform="rotate(-0 110.9145 196.992896)">Task Routing</text>
   </g>
   <g id="patch_14">
    <path d="M 168.225033 179.866667 
Q 200.796427 179.866667 232.026181 179.866667 
" style="fill: none; stroke: #cfcece; stroke-width: 1.2; stroke-linecap: round"/>
    <path d="M 227.626181 177.666667 
L 232.026181 179.866667 
L 227.626181 182.066667 
" style="fill: none; stroke: #cfcece; stroke-width: 1.2; stroke-linecap: round"/>
   </g>
   <g id="text_6">
    <text style="fill: #ffffff; font: 700 10px 'Arial', 'DejaVu Sans', sans-serif; text-anchor: middle" x="283.772" y="177.100708" transform="rotate(-0 283.772 177.100708)">ACQ</text>
   </g>
   <g id="text_7">
    <text style="fill: #ffffff; opacity: 0.85; font: 7px 'Arial', 'DejaVu Sans', sans-serif; text-anchor: middle" x="283.772" y="196.992896" transform="rotate(-0 283.772 196.992896)">Acquisition</text>
   </g>
   <g id="patch_15">
    <path d="M 310.66282 179.866667 
Q 318.345015 179.866667 325.132782 179.866667 
" style="fill: none; stroke: #b4c0e4; stroke-width: 0.8; stroke-linecap: round"/>
    <path d="M 320.732782 177.666667 
L 325.132782 179.866667 
L 320.732782 182.066667 
" style="fill: none; stroke: #b4c0e4; stroke-width: 0.8; stroke-linecap: round"/>
   </g>
   <g id="text_8">
    <text style="fill: #ffffff; font: 700 10px 'Arial', 'DejaVu Sans', sans-serif; text-anchor: middle" x="347.38356" y="177.100708" transform="rotate(-0 347.38356 177.100708)">EXT</text>
   </g>
   <g id="text_9">
    <text style="fill: #ffffff; opacity: 0.85; font: 7px 'Arial', 'DejaVu Sans', sans-serif; text-anchor: middle" x="347.38356" y="196.992896" transform="rotate(-0 347.38356 196.992896)">Extraction</text>
   </g>
   <g id="patch_16">
    <path d="M 374.27438 179.866667 
Q 381.956575 179.866667 388.744342 179.866667 
" style="fill: none; stroke: #b4c0e4; stroke-width: 0.8; stroke-linecap: round"/>
    <path d="M 384.344342 177.666667 
L 388.744342 179.866667 
L 384.344342 182.066667 
" style="fill: none; stroke: #b4c0e4; stroke-width: 0.8; stroke-linecap: round"/>
   </g>
   <g id="text_10">
    <text style="fill: #ffffff; font: 700 10px 'Arial', 'DejaVu Sans', sans-serif; text-anchor: middle" x="410.99512" y="177.100708" transform="rotate(-0 410.99512 177.100708)">ASC</text>
   </g>
   <g id="text_11">
    <text style="fill: #ffffff; opacity: 0.85; font: 7px 'Arial', 'DejaVu Sans', sans-serif; text-anchor: middle" x="410.99512" y="196.992896" transform="rotate(-0 410.99512 196.992896)">Association</text>
   </g>
   <g id="patch_17">
    <path d="M 437.88594 179.866667 
Q 445.568135 179.866667 452.355902 179.866667 
" style="fill: none; stroke: #b4c0e4; stroke-width: 0.8; stroke-linecap: round"/>
    <path d="M 447.955902 177.666667 
L 452.355902 179.866667 
L 447.955902 182.066667 
" style="fill: none; stroke: #b4c0e4; stroke-width: 0.8; stroke-linecap: round"/>
   </g>
   <g id="text_12">
    <text style="fill: #ffffff; font: 700 10px 'Arial', 'DejaVu Sans', sans-serif; text-anchor: middle" x="474.60668" y="177.100708" transform="rotate(-0 474.60668 177.100708)">HYP</text>
   </g>
   <g id="text_13">
    <text style="fill: #ffffff; opacity: 0.85; font: 7px 'Arial', 'DejaVu Sans', sans-serif; text-anchor: middle" x="474.60668" y="196.992896" transform="rotate(-0 474.60668 196.992896)">Hypothesis</text>
   </g>
   <g id="patch_18">
    <path d="M 501.4975 179.866667 
Q 509.179695 179.866667 515.967462 179.866667 
" style="fill: none; stroke: #b4c0e4; stroke-width: 0.8; stroke-linecap: round"/>
    <path d="M 511.567462 177.666667 
L 515.967462 179.866667 
L 511.567462 182.066667 
" style="fill: none; stroke: #b4c0e4; stroke-width: 0.8; stroke-linecap: round"/>
   </g>
   <g id="text_14">
    <text style="fill: #ffffff; font: 700 10px 'Arial', 'DejaVu Sans', sans-serif; text-anchor: middle" x="538.21824" y="177.100708" transform="rotate(-0 538.21824 177.100708)">ARG</text>
   </g>
   <g id="text_15">
    <text style="fill: #ffffff; opacity: 0.85; font: 7px 'Arial', 'DejaVu Sans', sans-serif; text-anchor: middle" x="538.21824" y="196.992896" transform="rotate(-0 538.21824 196.992896)">Argument</text>
   </g>
   <g id="patch_19">
    <path d="M 565.10906 179.866667 
Q 572.791255 179.866667 579.579022 179.866667 
" style="fill: none; stroke: #b4c0e4; stroke-width: 0.8; stroke-linecap: round"/>
    <path d="M 575.179022 177.666667 
L 579.579022 179.866667 
L 575.179022 182.066667 
" style="fill: none; stroke: #b4c0e4; stroke-width: 0.8; stroke-linecap: round"/>
   </g>
   <g id="text_16">
    <text style="fill: #ffffff; font: 700 10px 'Arial', 'DejaVu Sans', sans-serif; text-anchor: middle" x="601.8298" y="177.100708" transform="rotate(-0 601.8298 177.100708)">VER</text>
   </g>
   <g id="text_17">
    <text style="fill: #ffffff; opacity: 0.85; font: 7px 'Arial', 'DejaVu Sans', sans-serif; text-anchor: middle" x="601.8298" y="196.992896" transform="rotate(-0 601.8298 196.992896)">Verification</text>
   </g>
   <g id="text_18">
    <text style="fill: #42949e; font: italic 7px 'Arial', 'DejaVu Sans', sans-serif; text-anchor: middle" x="387.4865" y="226.691562" transform="rotate(-0 387.4865 226.691562)">Evolution Loop (daily cycle)</text>
   </g>
   <g id="text_19">
    <text style="fill: #767676; font: 700 9px 'Arial', 'DejaVu Sans', sans-serif; text-anchor: middle" x="55.6001" y="279.043437" transform="rotate(-0 55.6001 279.043437)">Extended Skills</text>
   </g>
   <g id="text_20">
    <text style="fill: #ffffff; font: 700 10px 'Arial', 'DejaVu Sans', sans-serif; text-anchor: middle" x="145.486" y="315.234042" transform="rotate(-0 145.486 315.234042)">BPPV Expert</text>
   </g>
   <g id="text_21">
    <text style="fill: #ffffff; opacity: 0.85; font: 7px 'Arial', 'DejaVu Sans', sans-serif; text-anchor: middle" x="145.486" y="335.126229" transform="rotate(-0 145.486 335.126229)">Medical Knowledge</text>
   </g>
   <g id="text_22">
    <text style="fill: #ffffff; font: 700 10px 'Arial', 'DejaVu Sans', sans-serif; text-anchor: middle" x="352.915" y="315.194979" transform="rotate(-0 352.915 315.194979)">Research Thinking</text>
   </g>
   <g id="text_23">
    <text style="fill: #ffffff; opacity: 0.85; font: 7px 'Arial', 'DejaVu Sans', sans-serif; text-anchor: middle" x="352.915" y="335.126229" transform="rotate(-0 352.915 335.126229)">Methodology Framework</text>
   </g>
   <g id="text_24">
    <text style="fill: #ffffff; font: 700 10px 'Arial', 'DejaVu Sans', sans-serif; text-anchor: middle" x="560.344" y="315.194979" transform="rotate(-0 560.344 315.194979)">Figure Generation</text>
   </g>
   <g id="text_25">
    <text style="fill: #ffffff; opacity: 0.85; font: 7px 'Arial', 'DejaVu Sans', sans-serif; text-anchor: middle" x="560.344" y="335.126229" transform="rotate(-0 560.344 335.126229)">Publication Graphics</text>
   </g>
   <g id="patch_20">
    <path d="M 310.09331 202.075052 
Q 266.487132 250.659017 223.179672 298.910164 
" style="fill: none; stroke: #b4c0e4; stroke-width: 0.4; stroke-linecap: round"/>
    <path d="M 227.755915 297.10517 
L 223.179672 298.910164 
L 224.481422 294.166173 
" style="fill: none; stroke: #b4c0e4; stroke-width: 0.4; stroke-linecap: round"/>
   </g>
   <g id="patch_21">
    <path d="M 442.268317 202.51515 
Q 428.972139 250.660584 415.79501 298.37494 
" style="fill: none; stroke: #b4c0e4; stroke-width: 0.4; stroke-linecap: round"/>
    <path d="M 419.086917 294.719349 
L 415.79501 298.37494 
L 414.845681 293.54806 
" style="fill: none; stroke: #b4c0e4; stroke-width: 0.4; stroke-linecap: round"/>
   </g>
   <g id="patch_22">
    <path d="M 354.704873 201.480615 
Q 453.171242 250.659446 551.237522 299.638455 
" style="fill: none; stroke: #b4c0e4; stroke-width: 0.4; stroke-linecap: round"/>
    <path d="M 548.284175 295.704279 
L 551.237522 299.638455 
L 546.318173 299.640627 
" style="fill: none; stroke: #b4c0e4; stroke-width: 0.4; stroke-linecap: round"/>
   </g>
   <g id="text_26">
    <text style="fill: #767676; font: 700 9px 'Arial', 'DejaVu Sans', sans-serif; text-anchor: middle" x="55.6001" y="393.003437" transform="rotate(-0 55.6001 393.003437)">Infrastructure</text>
   </g>
   <g id="text_27">
    <text style="fill: #ffffff; font: 700 10px 'Arial', 'DejaVu Sans', sans-serif; text-anchor: middle" x="180.0575" y="425.701646" transform="rotate(-0 180.0575 425.701646)">Evolution Engine</text>
   </g>
   <g id="text_28">
    <text style="fill: #ffffff; opacity: 0.85; font: 7px 'Arial', 'DejaVu Sans', sans-serif; text-anchor: middle" x="180.0575" y="445.632896" transform="rotate(-0 180.0575 445.632896)">Self-Evolution • 13 Cycles • Score 0.933</text>
   </g>
   <g id="text_29">
    <text style="fill: #ffffff; font: 700 10px 'Arial', 'DejaVu Sans', sans-serif; text-anchor: middle" x="525.7725" y="425.740708" transform="rotate(-0 525.7725 425.740708)">LaTeX Output</text>
   </g>
   <g id="text_30">
    <text style="fill: #ffffff; opacity: 0.85; font: 7px 'Arial', 'DejaVu Sans', sans-serif; text-anchor: middle" x="525.7725" y="445.632896" transform="rotate(-0 525.7725 445.632896)">Paper Generation</text>
   </g>
   <g id="text_31">
    <text style="fill: #767676; font: italic 7.5px 'Arial', 'DejaVu Sans', sans-serif; text-anchor: middle" x="352.915" y="503.096198" transform="rotate(-0 352.915 503.096198)">Constitutional Design  •  Human-in-the-Loop  •  Zero Python  •  Agent-Native</text>
   </g>
   <g id="patch_23">
    <path d="M 662.777683 181.400088 
Q 387.487122 510.218902 113.63198 183.116092 
" style="fill: none; stroke-dasharray: 7.4,3.2; stroke-dashoffset: 0; stroke: #42949e; stroke-width: 2; stroke-linecap: round"/>
    <path d="M 114.769649 187.902084 
L 113.63198 183.116092 
L 118.143374 185.077552 
" style="fill: none; stroke-dasharray: 7.4,3.2; stroke-dashoffset: 0; stroke: #42949e; stroke-width: 2; stroke-linecap: round"/>
   </g>
   <g id="legend_1">
    <g id="patch_24">
     <path d="M 617.458437 521.7 
L 693.73 521.7 
Q 695.13 521.7 695.13 520.3 
L 695.13 479.90125 
Q 695.13 478.50125 693.73 478.50125 
L 617.458437 478.50125 
Q 616.058437 478.50125 616.058437 479.90125 
L 616.058437 520.3 
Q 616.058437 521.7 617.458437 521.7 
z
" style="fill: #ffffff; opacity: 0.9; stroke: #d8d8d8; stroke-width: 0.5; stroke-linejoin: miter"/>
    </g>
    <g id="patch_25">
     <path d="M 618.858437 486.620156 
L 632.858437 486.620156 
L 632.858437 481.720156 
L 618.858437 481.720156 
z
" style="fill: #0f4d92; stroke: #ffffff; stroke-linejoin: miter"/>
    </g>
    <g id="text_32">
     <text style="font: 7px 'Arial', 'DejaVu Sans', sans-serif; text-anchor: start" x="638.458437" y="486.620156" transform="rotate(-0 638.458437 486.620156)">Router</text>
    </g>
    <g id="patch_26">
     <path d="M 618.858437 496.894844 
L 632.858437 496.894844 
L 632.858437 491.994844 
L 618.858437 491.994844 
z
" style="fill: #3775ba; stroke: #ffffff; stroke-linejoin: miter"/>
    </g>
    <g id="text_33">
     <text style="font: 7px 'Arial', 'DejaVu Sans', sans-serif; text-anchor: start" x="638.458437" y="496.894844" transform="rotate(-0 638.458437 496.894844)">Cognitive Atom</text>
    </g>
    <g id="patch_27">
     <path d="M 618.858437 507.169531 
L 632.858437 507.169531 
L 632.858437 502.269531 
L 618.858437 502.269531 
z
" style="fill: #8bcf8b; stroke: #ffffff; stroke-linejoin: miter"/>
    </g>
    <g id="text_34">
     <text style="font: 7px 'Arial', 'DejaVu Sans', sans-serif; text-anchor: start" x="638.458437" y="507.169531" transform="rotate(-0 638.458437 507.169531)">Extended Skill</text>
    </g>
    <g id="patch_28">
     <path d="M 618.858437 517.444219 
L 632.858437 517.444219 
L 632.858437 512.544219 
L 618.858437 512.544219 
z
" style="fill: #b64342; stroke: #ffffff; stroke-linejoin: miter"/>
    </g>
    <g id="text_35">
     <text style="font: 7px 'Arial', 'DejaVu Sans', sans-serif; text-anchor: start" x="638.458437" y="517.444219" transform="rotate(-0 638.458437 517.444219)">Infrastructure</text>
    </g>
   </g>
  </g>
 </g>
 <defs>
  <clipPath id="p93d7fb45e9">
   <rect x="7.2" y="7.2" width="691.43" height="518"/>
  </clipPath>
 </defs>
</svg>
